<svg width="32" height="32" viewBox="0 0 32 32" fill="none" xmlns="http://www.w3.org/2000/svg">
  <!-- Background Circle -->
  <circle cx="16" cy="16" r="15" fill="url(#gradient)" stroke="#0369a1" stroke-width="2"/>
  
  <!-- Brain/Mind Icon -->
  <path d="M12 8c-1.5 0-3 1-3.5 2.5C8 11 8 11.5 8.5 12c-0.5 0.5-0.5 1 0 1.5C8 14 8.5 14.5 9 14.5c-0.2 0.8 0.3 1.5 1 1.8v1.2c0 1.5 1 3 2.5 3.5h3c1.5-0.5 2.5-2 2.5-3.5v-1.2c0.7-0.3 1.2-1 1-1.8 0.5 0 1-0.5 1-1 0.5-0.5 0.5-1 0-1.5 0.5-0.5 0.5-1.5-0.5-2C19 10 17.5 9 16 9s-3 0.5-4 1z" fill="white" opacity="0.9"/>
  
  <!-- Growth Arrow -->
  <path d="M20 18l2-2 2 2M22 16v6" stroke="white" stroke-width="1.5" stroke-linecap="round" stroke-linejoin="round" opacity="0.8"/>
  
  <!-- Success Dots -->
  <circle cx="10" cy="22" r="1" fill="white" opacity="0.6"/>
  <circle cx="13" cy="24" r="1" fill="white" opacity="0.7"/>
  <circle cx="16" cy="25" r="1" fill="white" opacity="0.8"/>
  
  <!-- Gradient Definition -->
  <defs>
    <linearGradient id="gradient" x1="0%" y1="0%" x2="100%" y2="100%">
      <stop offset="0%" style="stop-color:#0ea5e9;stop-opacity:1" />
      <stop offset="50%" style="stop-color:#0284c7;stop-opacity:1" />
      <stop offset="100%" style="stop-color:#0369a1;stop-opacity:1" />
    </linearGradient>
  </defs>
</svg>